<mxfile host="app.diagrams.net" agent="Mozilla/5.0 (Macintosh; Intel Mac OS X 10.15; rv:131.0) Gecko/20100101 Firefox/131.0" version="24.7.14">
  <diagram name="Page-1" id="2YBvvXClWsGukQMizWep">
    <mxGraphModel dx="1844" dy="1075" grid="1" gridSize="10" guides="1" tooltips="1" connect="1" arrows="1" fold="1" page="1" pageScale="1" pageWidth="850" pageHeight="1100" math="0" shadow="0">
      <root>
        <mxCell id="0" />
        <mxCell id="1" parent="0" />
        <mxCell id="ELD2gDj7uaRyYtmW3baM-9" value="HOST" style="shape=umlLifeline;perimeter=lifelinePerimeter;whiteSpace=wrap;html=1;container=1;dropTarget=0;collapsible=0;recursiveResize=0;outlineConnect=0;portConstraint=eastwest;newEdgeStyle={&quot;curved&quot;:0,&quot;rounded&quot;:0};" vertex="1" parent="1">
          <mxGeometry x="235" y="120" width="120" height="480" as="geometry" />
        </mxCell>
        <mxCell id="ELD2gDj7uaRyYtmW3baM-13" value="" style="html=1;points=[[0,0,0,0,5],[0,1,0,0,-5],[1,0,0,0,5],[1,1,0,0,-5]];perimeter=orthogonalPerimeter;outlineConnect=0;targetShapes=umlLifeline;portConstraint=eastwest;newEdgeStyle={&quot;curved&quot;:0,&quot;rounded&quot;:0};" vertex="1" parent="ELD2gDj7uaRyYtmW3baM-9">
          <mxGeometry x="55" y="80" width="10" height="50" as="geometry" />
        </mxCell>
        <mxCell id="ELD2gDj7uaRyYtmW3baM-20" value="" style="html=1;points=[[0,0,0,0,5],[0,1,0,0,-5],[1,0,0,0,5],[1,1,0,0,-5]];perimeter=orthogonalPerimeter;outlineConnect=0;targetShapes=umlLifeline;portConstraint=eastwest;newEdgeStyle={&quot;curved&quot;:0,&quot;rounded&quot;:0};" vertex="1" parent="ELD2gDj7uaRyYtmW3baM-9">
          <mxGeometry x="55" y="330" width="10" height="120" as="geometry" />
        </mxCell>
        <mxCell id="ELD2gDj7uaRyYtmW3baM-10" value="MSAL Library" style="shape=umlLifeline;perimeter=lifelinePerimeter;whiteSpace=wrap;html=1;container=1;dropTarget=0;collapsible=0;recursiveResize=0;outlineConnect=0;portConstraint=eastwest;newEdgeStyle={&quot;curved&quot;:0,&quot;rounded&quot;:0};" vertex="1" parent="1">
          <mxGeometry x="435" y="120" width="120" height="380" as="geometry" />
        </mxCell>
        <mxCell id="ELD2gDj7uaRyYtmW3baM-16" value="" style="html=1;points=[[0,0,0,0,5],[0,1,0,0,-5],[1,0,0,0,5],[1,1,0,0,-5]];perimeter=orthogonalPerimeter;outlineConnect=0;targetShapes=umlLifeline;portConstraint=eastwest;newEdgeStyle={&quot;curved&quot;:0,&quot;rounded&quot;:0};" vertex="1" parent="ELD2gDj7uaRyYtmW3baM-10">
          <mxGeometry x="55" y="120" width="10" height="50" as="geometry" />
        </mxCell>
        <mxCell id="ELD2gDj7uaRyYtmW3baM-19" value="" style="html=1;points=[[0,0,0,0,5],[0,1,0,0,-5],[1,0,0,0,5],[1,1,0,0,-5]];perimeter=orthogonalPerimeter;outlineConnect=0;targetShapes=umlLifeline;portConstraint=eastwest;newEdgeStyle={&quot;curved&quot;:0,&quot;rounded&quot;:0};" vertex="1" parent="ELD2gDj7uaRyYtmW3baM-10">
          <mxGeometry x="55" y="240" width="10" height="100" as="geometry" />
        </mxCell>
        <mxCell id="ELD2gDj7uaRyYtmW3baM-11" value="AZURE" style="shape=umlLifeline;perimeter=lifelinePerimeter;whiteSpace=wrap;html=1;container=1;dropTarget=0;collapsible=0;recursiveResize=0;outlineConnect=0;portConstraint=eastwest;newEdgeStyle={&quot;curved&quot;:0,&quot;rounded&quot;:0};" vertex="1" parent="1">
          <mxGeometry x="635" y="120" width="120" height="380" as="geometry" />
        </mxCell>
        <mxCell id="ELD2gDj7uaRyYtmW3baM-17" value="" style="html=1;points=[[0,0,0,0,5],[0,1,0,0,-5],[1,0,0,0,5],[1,1,0,0,-5]];perimeter=orthogonalPerimeter;outlineConnect=0;targetShapes=umlLifeline;portConstraint=eastwest;newEdgeStyle={&quot;curved&quot;:0,&quot;rounded&quot;:0};" vertex="1" parent="ELD2gDj7uaRyYtmW3baM-11">
          <mxGeometry x="55" y="160" width="10" height="90" as="geometry" />
        </mxCell>
        <mxCell id="ELD2gDj7uaRyYtmW3baM-12" value="USER" style="shape=umlActor;verticalLabelPosition=bottom;verticalAlign=top;html=1;strokeWidth=2;" vertex="1" parent="1">
          <mxGeometry x="95" y="170" width="30" height="70" as="geometry" />
        </mxCell>
        <mxCell id="ELD2gDj7uaRyYtmW3baM-14" style="edgeStyle=orthogonalEdgeStyle;rounded=0;orthogonalLoop=1;jettySize=auto;html=1;entryX=0;entryY=0;entryDx=0;entryDy=5;entryPerimeter=0;" edge="1" parent="1" source="ELD2gDj7uaRyYtmW3baM-12" target="ELD2gDj7uaRyYtmW3baM-13">
          <mxGeometry relative="1" as="geometry" />
        </mxCell>
        <mxCell id="ELD2gDj7uaRyYtmW3baM-21" style="edgeStyle=orthogonalEdgeStyle;rounded=0;orthogonalLoop=1;jettySize=auto;html=1;curved=0;entryX=0;entryY=0;entryDx=0;entryDy=5;entryPerimeter=0;" edge="1" parent="1" source="ELD2gDj7uaRyYtmW3baM-13" target="ELD2gDj7uaRyYtmW3baM-16">
          <mxGeometry relative="1" as="geometry">
            <Array as="points">
              <mxPoint x="295" y="245" />
            </Array>
          </mxGeometry>
        </mxCell>
        <mxCell id="ELD2gDj7uaRyYtmW3baM-22" style="edgeStyle=orthogonalEdgeStyle;rounded=0;orthogonalLoop=1;jettySize=auto;html=1;curved=0;entryX=0;entryY=0;entryDx=0;entryDy=5;entryPerimeter=0;" edge="1" parent="1" source="ELD2gDj7uaRyYtmW3baM-16" target="ELD2gDj7uaRyYtmW3baM-17">
          <mxGeometry relative="1" as="geometry">
            <Array as="points">
              <mxPoint x="545" y="285" />
              <mxPoint x="545" y="285" />
            </Array>
          </mxGeometry>
        </mxCell>
        <mxCell id="ELD2gDj7uaRyYtmW3baM-27" style="edgeStyle=orthogonalEdgeStyle;rounded=0;orthogonalLoop=1;jettySize=auto;html=1;curved=0;entryX=1;entryY=0;entryDx=0;entryDy=5;entryPerimeter=0;" edge="1" parent="1" source="ELD2gDj7uaRyYtmW3baM-19" target="ELD2gDj7uaRyYtmW3baM-20">
          <mxGeometry relative="1" as="geometry">
            <Array as="points">
              <mxPoint x="495" y="455" />
            </Array>
          </mxGeometry>
        </mxCell>
        <mxCell id="ELD2gDj7uaRyYtmW3baM-28" value="ris-online.rne.eu" style="text;html=1;align=center;verticalAlign=middle;whiteSpace=wrap;rounded=0;fontSize=14;" vertex="1" parent="1">
          <mxGeometry x="125" y="180" width="160" height="30" as="geometry" />
        </mxCell>
        <mxCell id="ELD2gDj7uaRyYtmW3baM-29" value="newcrd.rne.eu" style="text;html=1;align=center;verticalAlign=middle;whiteSpace=wrap;rounded=0;fontSize=14;" vertex="1" parent="1">
          <mxGeometry x="125" y="200" width="160" height="30" as="geometry" />
        </mxCell>
        <mxCell id="ELD2gDj7uaRyYtmW3baM-30" value="Verify Stored Token" style="text;html=1;align=center;verticalAlign=middle;whiteSpace=wrap;rounded=0;fontSize=14;" vertex="1" parent="1">
          <mxGeometry x="315" y="220" width="160" height="30" as="geometry" />
        </mxCell>
        <mxCell id="ELD2gDj7uaRyYtmW3baM-31" value="Silent Refresh Request" style="text;html=1;align=center;verticalAlign=middle;whiteSpace=wrap;rounded=0;fontSize=14;" vertex="1" parent="1">
          <mxGeometry x="515" y="260" width="160" height="30" as="geometry" />
        </mxCell>
        <mxCell id="ELD2gDj7uaRyYtmW3baM-32" value="Silent Token Refresh" style="text;html=1;align=center;verticalAlign=middle;whiteSpace=wrap;rounded=0;fontSize=14;" vertex="1" parent="1">
          <mxGeometry x="515" y="340" width="160" height="30" as="geometry" />
        </mxCell>
        <mxCell id="ELD2gDj7uaRyYtmW3baM-33" style="edgeStyle=orthogonalEdgeStyle;rounded=0;orthogonalLoop=1;jettySize=auto;html=1;curved=0;entryX=1;entryY=0;entryDx=0;entryDy=5;entryPerimeter=0;" edge="1" parent="1" source="ELD2gDj7uaRyYtmW3baM-17" target="ELD2gDj7uaRyYtmW3baM-19">
          <mxGeometry relative="1" as="geometry">
            <Array as="points">
              <mxPoint x="645" y="365" />
              <mxPoint x="645" y="365" />
            </Array>
          </mxGeometry>
        </mxCell>
        <mxCell id="ELD2gDj7uaRyYtmW3baM-34" value="Initialize Host Application" style="text;html=1;align=center;verticalAlign=middle;whiteSpace=wrap;rounded=0;fontSize=14;" vertex="1" parent="1">
          <mxGeometry x="315" y="430" width="160" height="30" as="geometry" />
        </mxCell>
        <mxCell id="ELD2gDj7uaRyYtmW3baM-35" value="Application Initialization flow with user already authenticated" style="text;html=1;align=center;verticalAlign=middle;whiteSpace=wrap;rounded=0;fontStyle=1;fontSize=16;" vertex="1" parent="1">
          <mxGeometry x="80" y="40" width="680" height="30" as="geometry" />
        </mxCell>
        <mxCell id="ELD2gDj7uaRyYtmW3baM-36" value="RNE/CRD Start Up" style="text;html=1;align=center;verticalAlign=middle;whiteSpace=wrap;rounded=0;fontSize=14;" vertex="1" parent="1">
          <mxGeometry x="125" y="490" width="160" height="30" as="geometry" />
        </mxCell>
      </root>
    </mxGraphModel>
  </diagram>
</mxfile>
